<svg id="Layer_1" data-name="Layer 1" xmlns="http://www.w3.org/2000/svg" viewBox="0 0 1366 260"><defs><style>.cls-1{fill:#fe022a;}.cls-2{isolation:isolate;fill:white}</style></defs><g id="Group_15" data-name="Group 15"><g id="Group_13" data-name="Group 13"><path id="Path_34" data-name="Path 34" class="cls-1" d="M90.79,94V71.15A2.08,2.08,0,0,1,92,69c6.37-3.61,12.7-7.28,19-10.94.2-.11.41-.19.83-.38,0,2.38.05,4.63,0,6.86,0,1.12.24,1.54,1.47,1.53q36-.11,72.05-.11c1.08,0,1.28-.38,1.26-1.32,0-2.25,0-4.5,0-7l3.06,1.73L206.37,69c.58.34,1.27.54,1.26,1.51,0,7.73,0,15.47,0,23.47-2.39-1.38-4.62-2.57-6.75-3.92-1.22-.77-1.74-.76-2.39.7q-17,37.24-34.15,74.37c-.6,1.3-.3,1.85.84,2.45,2.08,1.1,4.1,2.34,6.36,3.64l-14.49,8.36c-1.81,1-3.64,2-5.4,3.15a1.86,1.86,0,0,1-2.24,0c-6.52-3.82-13.07-7.57-19.88-11.5,2.57-1.49,4.95-3,7.45-4.26,1.43-.72,1.43-1.39.82-2.7q-17.13-37.17-34.15-74.38c-.27-.59-1.28-1.49-.42-1.91s1,.9,1.24,1.47q17.09,37.08,34.05,74.23c.74,1.62,1.26,1.78,2.72.84,2.65-1.71,5.47-3.15,8.16-4.77a1.88,1.88,0,0,1,2.25,0c3.21,1.93,6.52,3.7,9.7,5.68,1.32.81,1.7.4,2.25-.81q9.77-21.42,19.61-42.79c4.84-10.54,9.64-21.09,14.54-31.59.6-1.29.35-1.8-.82-2.43-3-1.62-5.86-3.41-8.84-5a2.39,2.39,0,0,1-1.48-2.49c.1-3.82,0-7.64.06-11.46,0-1.13-.29-1.48-1.49-1.48q-35.84.14-71.68.13c-1.43,0-1.65.48-1.62,1.74.07,3.82,0,7.63,0,11.45a1.68,1.68,0,0,1-.85,1.76C104.29,86.17,97.66,90,90.79,94Z"/><path id="Path_35" data-name="Path 35" class="cls-1" d="M327,94l-4-2.3c-1.85-1.07-1.85-1.07-2.78,1q-8.46,18.48-16.94,37c-5.5,12-11,24-16.54,36-.56,1.2-.42,1.71.74,2.3,1.95,1,3.82,2.16,5.9,3.38l-14.49,8.35c-1.8,1-3.63,2-5.39,3.15a1.86,1.86,0,0,1-2.24,0c-6.53-3.82-13.08-7.57-19.88-11.5l6.92-4L221.56,87.68,211,93.76c-.59-.42-.36-1-.36-1.36V71.13c0-.8,0-1.44.87-1.91,6.57-3.74,13.1-7.54,19.65-11.31.09,0,.22,0,.48,0,0,2,0,3.89,0,5.83-.05,1.17.21,1.65,1.54,1.65,14.66-.07,29.32-.06,44-.09q13.23,0,26.46-.08c2.77,0,2.39.35,2.42-2.51V57.64l2.91,1.67q8.43,4.84,16.85,9.72c.59.33,1.26.54,1.26,1.51C327,78.25,327,86,327,94ZM222.15,87.32a3.52,3.52,0,0,1,1.13,1.77q17.63,38.1,35.21,76.22c.52,1.12.82,1.38,2,.68,3.56-2.16,7.21-4.15,10.79-6.29a1.89,1.89,0,0,1,2.24,0c3.47,2.08,7,4,10.5,6.12,1,.62,1.43.41,1.91-.65q16.88-36.88,33.85-73.72c.48-1,.39-1.51-.64-2.07-3.95-2.2-7.82-4.54-11.77-6.73A2.29,2.29,0,0,1,306,80.26c.08-4,0-8,.06-12,0-1.43-.44-1.78-1.82-1.77-11.55.08-23.11.08-34.67.1-12.09,0-24.19.08-36.28,0-1.36,0-1.71.37-1.68,1.7.09,3.87,0,7.74.06,11.61a2.7,2.7,0,0,1-1.59,2.83C227.41,84.2,224.87,85.75,222.15,87.32Z"/><path id="Path_36" data-name="Path 36" class="cls-1" d="M249.84,173.84l2.62,1.49,17.19,9.88c.67.4,1.24.72,1.24,1.72-.05,7.64,0,15.25,0,22.85-.7.28-1.09-.23-1.52-.48-6.08-3.5-12.14-7-18.25-10.5a2.18,2.18,0,0,1-1.25-2.26c.07-3,0-6.07,0-9.11,0-1.15-.34-1.51-1.52-1.5q-24.93.09-49.86.09c-7.74,0-15.48,0-23.23,0-.59,0-1.64.48-1.67-.68s1.08-.67,1.63-.67q36.28-.12,72.56-.13c1.77,0,2.21-.47,2.12-2.16C249.73,179.68,249.84,176.89,249.84,173.84Z"/><path id="Path_37" data-name="Path 37" class="cls-1" d="M110.29,55C103.38,59,96.7,62.83,90,66.71a1.55,1.55,0,0,1-1.78-.16q-9.86-5.73-19.75-11.4c.1-.64.67-.66,1-.87,6.16-3.59,12.35-7.13,18.5-10.73a2,2,0,0,1,2.39,0C97,47.33,103.51,51.07,110.29,55Z"/><path id="Path_38" data-name="Path 38" class="cls-1" d="M188.31,54.84,208.43,43.2a1.14,1.14,0,0,1,1.3,0L230.08,55c-5.94,3.43-11.8,6.58-17.39,10.14a5.83,5.83,0,0,1-7.26,0c-5.3-3.38-10.87-6.36-16.31-9.55C188.84,55.43,188.38,55.44,188.31,54.84Z"/><path id="Path_39" data-name="Path 39" class="cls-1" d="M307.5,55c6.9-4,13.59-7.83,20.24-11.72.8-.47,1.3-.11,1.91.25l19.57,11.3c.06.64-.52.62-.82.8-6.12,3.55-12.27,7-18.36,10.63a2.57,2.57,0,0,1-3,.06C320.65,62.56,314.2,58.87,307.5,55Z"/><path id="Path_40" data-name="Path 40" class="cls-1" d="M87.74,94,73.37,85.7a12.82,12.82,0,0,0-2.15-1.25c-3.91-1.28-4.82-3.92-4.57-7.87.38-6.17.1-12.37.1-18.54.47-.4.8,0,1.12.21L86.57,69c.6.34,1.2.62,1.19,1.56C87.72,78.26,87.74,85.93,87.74,94Z"/><path id="Path_41" data-name="Path 41" class="cls-1" d="M351,57.81c0,6.38-.29,12.63.11,18.83a7.07,7.07,0,0,1-4.57,7.94c-5.08,2.43-9.83,5.56-14.71,8.38-.48.28-1,.55-1.44.78-.45-.17-.37-.45-.37-.66V70.94a1.7,1.7,0,0,1,.91-1.73c6.45-3.68,12.89-7.41,19.32-11.12A4.81,4.81,0,0,1,351,57.81Z"/><path id="Path_42" data-name="Path 42" class="cls-1" d="M127.89,173.81c6.06,3.5,11.73,7,17.61,10.07a5.56,5.56,0,0,1,3.47,6c-.28,6.06-.07,12.14-.09,18.21a3.22,3.22,0,0,1-.14,1.71c-.51.17-.81-.21-1.15-.41q-9.27-5.33-18.53-10.68c-.62-.35-1.19-.63-1.19-1.57C127.91,189.52,127.89,181.86,127.89,173.81Z"/><path id="Path_43" data-name="Path 43" class="cls-1" d="M173,174v23a1.44,1.44,0,0,1-.73,1.47q-9.91,5.66-19.79,11.36c-.08,0-.22,0-.48-.06v-22.6a1.8,1.8,0,0,1,1-1.87c6.45-3.68,12.89-7.41,19.32-11.12A3.94,3.94,0,0,1,173,174Z"/><path id="Path_44" data-name="Path 44" class="cls-1" d="M273.92,210.06V186.92a1.41,1.41,0,0,1,.78-1.43q10-5.73,19.86-11.46c.61.33.35.8.35,1.17,0,7.16,0,14.29,0,21.43a1.92,1.92,0,0,1-.95,2.05c-6.41,3.64-12.79,7.34-19.17,11C274.57,209.8,274.35,209.86,273.92,210.06Z"/></g><g id="Group_14" data-name="Group 14"><g id="WALCHAIN" class="cls-2"><g class="cls-2"><path d="M421.14,114.76l1.5,10.3,2.2-9.28,15.44-54.47H449L464,115.78l2.14,9.44,1.66-10.51L480,61.31H490.3l-18.93,78.06H462L445.91,82.49l-1.24-6-1.23,6-16.67,56.88h-9.39L398.51,61.31h10.3Z"/><path d="M586,118.94H553.3L546,139.37H535.33l29.81-78.06h9L604,139.37H593.45Zm-29.59-8.41h26.53L569.65,74Z"/><path d="M668.35,131h37v8.42H658V61.31h10.35Z"/><path d="M818,114.6q-1.46,12.39-9.14,19.11t-20.46,6.73q-13.83,0-22.17-9.92T757.89,104v-7.5a44.32,44.32,0,0,1,3.89-19.14,29,29,0,0,1,11-12.68,30.69,30.69,0,0,1,16.52-4.42q12.44,0,19.94,6.94T818,86.4H807.64q-1.33-9.36-5.82-13.55t-12.51-4.2q-9.87,0-15.47,7.3t-5.6,20.77v7.56q0,12.72,5.3,20.23A17.16,17.16,0,0,0,788.39,132q8.58,0,13.17-3.89t6.08-13.54Z"/><path d="M935.51,139.37H925.16V103.29H885.81v36.08H875.52V61.31h10.29V94.87h39.35V61.31h10.35Z"/><path d="M1041.35,118.94h-32.71l-7.34,20.43H990.68l29.81-78.06h9l29.86,78.06H1048.8Zm-29.6-8.41h26.54L1025,74Z"/><path d="M1124.4,139.37h-10.3V61.31h10.3Z"/><path d="M1246.69,139.37h-10.35L1197,79.22v60.15h-10.35V61.31H1197l39.41,60.42V61.31h10.24Z"/></g></g><g id="_MadeInWallonia" data-name=" MadeInWallonia" class="cls-2"><g class="cls-2"><path class="cls-1" d="M413.43,194.53h-6.15l-1.87,9.53h-3.33l1.86-9.53h-5.57v-3.22h6.18l1.61-8.27h-6v-3.22h6.65l1.91-9.7H412l-1.91,9.7h6.16l1.91-9.7h3.35l-1.91,9.7h4.76V183H419l-1.61,8.27h5.25v3.22h-5.85l-1.87,9.53h-3.35Zm-5.55-3.22H414l1.61-8.27h-6.16Z"/><path class="cls-1" d="M468.94,170.12l11.1,27.7,11.09-27.7h5.81v33.94h-4.48V190.85l.42-14.27-11.14,27.48h-3.43L467.2,176.65l.44,14.2v13.21h-4.48V170.12Z"/><path class="cls-1" d="M554,204.06a8.73,8.73,0,0,1-.61-2.65,9.64,9.64,0,0,1-7.18,3.12,8.88,8.88,0,0,1-6.12-2.11,6.84,6.84,0,0,1-2.39-5.35,7.12,7.12,0,0,1,3-6.12q3-2.17,8.42-2.18h4.2v-2a4.83,4.83,0,0,0-1.35-3.6,5.45,5.45,0,0,0-4-1.34,6.33,6.33,0,0,0-3.87,1.16,3.44,3.44,0,0,0-1.56,2.82h-4.34a6,6,0,0,1,1.34-3.64,9.13,9.13,0,0,1,3.64-2.79,12.28,12.28,0,0,1,5.05-1,10,10,0,0,1,6.83,2.17,7.9,7.9,0,0,1,2.56,6v11.61a14.2,14.2,0,0,0,.89,5.52v.37Zm-7.16-3.28a7.61,7.61,0,0,0,3.85-1.05,6.33,6.33,0,0,0,2.63-2.73v-5.17h-3.38q-7.92,0-7.93,4.63a3.89,3.89,0,0,0,1.36,3.17A5.15,5.15,0,0,0,546.81,200.78Z"/><path class="cls-1" d="M597.54,191.24q0-5.81,2.75-9.33a9.36,9.36,0,0,1,14.22-.5V168.26h4.32v35.8h-4l-.21-2.7a8.78,8.78,0,0,1-7.2,3.17,8.65,8.65,0,0,1-7.15-3.59,15,15,0,0,1-2.76-9.37Zm4.32.49a11.22,11.22,0,0,0,1.77,6.72,5.73,5.73,0,0,0,4.89,2.42,6.29,6.29,0,0,0,6-3.68V185.6a6.33,6.33,0,0,0-5.94-3.56,5.75,5.75,0,0,0-4.94,2.44Q601.86,186.93,601.86,191.73Z"/><path class="cls-1" d="M670.21,204.53a11,11,0,0,1-8.34-3.37,12.47,12.47,0,0,1-3.22-9v-.79a15.19,15.19,0,0,1,1.43-6.7,11.25,11.25,0,0,1,4-4.62,10.09,10.09,0,0,1,5.58-1.66,9.46,9.46,0,0,1,7.65,3.24q2.73,3.24,2.73,9.27v1.8H663a9,9,0,0,0,2.18,6,6.86,6.86,0,0,0,5.3,2.3,7.49,7.49,0,0,0,3.87-.93,9.86,9.86,0,0,0,2.78-2.47l2.63,2Q676.56,204.54,670.21,204.53Zm-.54-22.61a5.73,5.73,0,0,0-4.38,1.9,9.22,9.22,0,0,0-2.19,5.32h12.64v-.32a8.21,8.21,0,0,0-1.78-5.09A5.38,5.38,0,0,0,669.67,181.92Z"/><path class="cls-1" d="M724.74,204.06h-4.47V170.12h4.47Z"/><path class="cls-1" d="M770.56,178.84l.14,3.17a9.18,9.18,0,0,1,7.55-3.63q8,0,8.07,9v16.66H782V187.37a5.8,5.8,0,0,0-1.24-4A5,5,0,0,0,777,182a6.28,6.28,0,0,0-3.69,1.11,7.7,7.7,0,0,0-2.47,2.94v18h-4.31V178.84Z"/><path class="cls-1" d="M835,193.36l.66,4.48.95-4,6.72-23.69h3.77l6.55,23.69.94,4.1.72-4.57,5.27-23.22h4.5l-8.23,33.94h-4.08l-7-24.73-.53-2.59-.54,2.59-7.25,24.73h-4.08l-8.2-33.94h4.47Z"/><path class="cls-1" d="M918.44,204.06a9,9,0,0,1-.61-2.65,9.62,9.62,0,0,1-7.18,3.12,8.88,8.88,0,0,1-6.12-2.11,6.84,6.84,0,0,1-2.39-5.35,7.12,7.12,0,0,1,3-6.12q3-2.17,8.42-2.18h4.2v-2a4.83,4.83,0,0,0-1.35-3.6,5.45,5.45,0,0,0-4-1.34,6.33,6.33,0,0,0-3.87,1.16,3.44,3.44,0,0,0-1.56,2.82h-4.33a5.9,5.9,0,0,1,1.34-3.64,9,9,0,0,1,3.63-2.79,12.28,12.28,0,0,1,5-1,10,10,0,0,1,6.83,2.17,7.87,7.87,0,0,1,2.56,6v11.61a14.2,14.2,0,0,0,.89,5.52v.37Zm-7.16-3.28a7.61,7.61,0,0,0,3.85-1.05,6.33,6.33,0,0,0,2.63-2.73v-5.17h-3.38q-7.92,0-7.92,4.63a3.92,3.92,0,0,0,1.35,3.17A5.15,5.15,0,0,0,911.28,200.78Z"/><path class="cls-1" d="M967.75,204.06h-4.31v-35.8h4.31Z"/><path class="cls-1" d="M1013.56,204.06h-4.31v-35.8h4.31Z"/><path class="cls-1" d="M1053.55,191.22a15,15,0,0,1,1.46-6.67,10.94,10.94,0,0,1,4-4.57,11.08,11.08,0,0,1,5.94-1.6,10.62,10.62,0,0,1,8.33,3.56q3.18,3.57,3.18,9.49v.3a15,15,0,0,1-1.41,6.61,10.71,10.71,0,0,1-4,4.56,11.16,11.16,0,0,1-6,1.63,10.6,10.6,0,0,1-8.31-3.57q-3.18-3.56-3.18-9.44Zm4.34.51a10.77,10.77,0,0,0,1.94,6.74,6.59,6.59,0,0,0,10.43,0c1.29-1.71,1.94-4.12,1.94-7.21a10.8,10.8,0,0,0-2-6.73,6.56,6.56,0,0,0-10.39,0C1058.54,186.15,1057.89,188.58,1057.89,191.73Z"/><path class="cls-1" d="M1120.23,178.84l.14,3.17a9.18,9.18,0,0,1,7.55-3.63q8,0,8.07,9v16.66h-4.32V187.37a5.8,5.8,0,0,0-1.24-4,5,5,0,0,0-3.82-1.3,6.28,6.28,0,0,0-3.68,1.11,7.7,7.7,0,0,0-2.47,2.94v18h-4.31V178.84Z"/><path class="cls-1" d="M1176.74,172.15a2.6,2.6,0,0,1,.64-1.77,2.88,2.88,0,0,1,3.81,0,2.52,2.52,0,0,1,.66,1.77,2.67,2.67,0,0,1-4.47,1.75A2.53,2.53,0,0,1,1176.74,172.15Zm4.66,31.91h-4.31V178.84h4.31Z"/><path class="cls-1" d="M1238.1,204.06a9.12,9.12,0,0,1-.6-2.65,9.64,9.64,0,0,1-7.18,3.12,8.88,8.88,0,0,1-6.12-2.11,6.84,6.84,0,0,1-2.39-5.35,7.12,7.12,0,0,1,3-6.12q3-2.17,8.42-2.18h4.2v-2a4.83,4.83,0,0,0-1.35-3.6,5.47,5.47,0,0,0-4-1.34,6.33,6.33,0,0,0-3.87,1.16,3.44,3.44,0,0,0-1.56,2.82h-4.34a6,6,0,0,1,1.34-3.64,9.13,9.13,0,0,1,3.64-2.79,12.28,12.28,0,0,1,5-1,10,10,0,0,1,6.83,2.17,7.9,7.9,0,0,1,2.56,6v11.61a14.2,14.2,0,0,0,.89,5.52v.37Zm-7.15-3.28a7.55,7.55,0,0,0,3.84-1.05,6.35,6.35,0,0,0,2.64-2.73v-5.17h-3.38q-7.93,0-7.93,4.63a3.92,3.92,0,0,0,1.35,3.17A5.18,5.18,0,0,0,1231,200.78Z"/></g></g></g></g></svg>