<svg xmlns="http://www.w3.org/2000/svg" width="164.125" height="164.066" viewBox="0 0 164.125 164.066">
  <g id="Nmo3ct.tif" transform="translate(-466.473 549.288)">
    <g id="Group_18" data-name="Group 18" transform="translate(466.473 -549.288)">
      <path id="Path_1993" data-name="Path 1993" d="M630.6-472.054v9.613a11.112,11.112,0,0,0-.27,1.4,72.991,72.991,0,0,1-4.856,22.257q-17.216,43.1-62.763,52.3c-3.067.615-6.21.851-9.318,1.262h-9.611c-1-.123-1.992-.263-2.991-.368-21.244-2.241-39.272-11.082-53.356-27.131-18.332-20.891-24.787-45.333-18.78-72.435,8.107-36.576,38.595-61.958,76.1-64.005a77.8,77.8,0,0,1,45.19,11.133q33.364,20.1,39.735,58.691C630.072-476.924,630.295-474.482,630.6-472.054Zm-89.592,17.342c.16-.995.237-1.664.378-2.319q2.4-11.188,4.826-22.371a4.843,4.843,0,0,0-1.808-5.409c-2.839-2.062-6.586-.543-7.413,3.091-1.373,6.033-2.61,12.1-3.908,18.148q-3.406,15.881-6.815,31.763c-.678,3.168.767,5.677,3.6,6.291,2.709.588,4.964-1.081,5.7-4.245.554-2.39.963-4.82,1.64-7.174,1.492-5.191,4.993-8.176,10.345-8.926,1.689-.237,3.4-.35,5.1-.5A34.5,34.5,0,0,0,584.178-485.4c-2.182-17.68-18.514-31.114-36.307-29.865a34.576,34.576,0,0,0-30.682,45.256,6.338,6.338,0,0,0,1.7,2.624,4.554,4.554,0,0,0,5.512.346,5.083,5.083,0,0,0,2.04-5.61c-.565-2.809-1.383-5.66-1.344-8.482a24.824,24.824,0,0,1,28.055-24.3,24.941,24.941,0,0,1,21.649,22.18c1.072,11.937-6.234,23.162-17.624,26.167C552.067-455.73,546.663-455.5,541.006-454.712Zm10.147,18.784a5.794,5.794,0,0,0-5.691,5.754,5.843,5.843,0,0,0,5.827,5.814,5.8,5.8,0,0,0,5.734-5.867A5.694,5.694,0,0,0,551.153-435.928Z" transform="translate(-466.473 549.288)" fill="#fff"/>
    </g>
  </g>
</svg>
